<svg xmlns="http://www.w3.org/2000/svg" viewBox="0 0 320 64" fill="none" role="img" aria-label="?? EagleEye Audit">
  <defs>
    <linearGradient id="yg" x1="0%" y1="0%" x2="100%" y2="100%">
      <stop offset="0%" stop-color="#0B2A4A"/>
      <stop offset="100%" stop-color="#134E72"/>
    </linearGradient>
    <linearGradient id="iris" x1="0%" y1="0%" x2="100%" y2="100%">
      <stop offset="0%" stop-color="#2DD4BF"/>
      <stop offset="100%" stop-color="#14B8A6"/>
    </linearGradient>
    <linearGradient id="amber" x1="0%" y1="50%" x2="100%" y2="50%">
      <stop offset="0%" stop-color="#E8A838"/>
      <stop offset="100%" stop-color="#F5C842"/>
    </linearGradient>
  </defs>
  <rect x="0" y="4" width="56" height="56" rx="14" fill="url(#yg)"/>
  <circle cx="28" cy="32" r="22" stroke="url(#amber)" stroke-width="1.5" stroke-opacity="0.55" fill="none"/>
  <path d="M28 14 A18 18 0 0 1 46 32" stroke="url(#amber)" stroke-width="2.5" stroke-linecap="round" fill="none" opacity="0.9"/>
  <path d="M10 32 C14 22 42 22 46 32 C42 42 14 42 10 32 Z" stroke="#fff" stroke-width="2" stroke-linejoin="round" fill="none" opacity="0.92"/>
  <circle cx="28" cy="32" r="9" fill="url(#iris)"/>
  <circle cx="28" cy="32" r="4.2" fill="#061829"/>
  <circle cx="30.5" cy="29.5" r="1.6" fill="#fff" opacity="0.95"/>
  <line x1="28" y1="8" x2="28" y2="14" stroke="url(#amber)" stroke-width="1.5" stroke-linecap="round" opacity="0.7"/>
  <line x1="28" y1="50" x2="28" y2="56" stroke="url(#amber)" stroke-width="1.5" stroke-linecap="round" opacity="0.5"/>
  <line x1="8" y1="32" x2="14" y2="32" stroke="url(#amber)" stroke-width="1.5" stroke-linecap="round" opacity="0.5"/>
  <line x1="42" y1="32" x2="48" y2="32" stroke="url(#amber)" stroke-width="1.5" stroke-linecap="round" opacity="0.5"/>
  <text x="68" y="36" font-family="system-ui,-apple-system,'PingFang SC','Noto Sans SC',sans-serif" font-size="26" font-weight="800" fill="#0B2A4A">??</text>
  <text x="68" y="52" font-family="'DM Sans',system-ui,sans-serif" font-size="11" font-weight="600" fill="#5C7185" letter-spacing="0.12em">EagleEye Audit</text>
</svg>
