<svg xmlns="http://www.w3.org/2000/svg" viewBox="0 0 64 64" fill="none" role="img" aria-label="鹰眼 logo">
  <defs>
    <linearGradient id="bg" x1="0%" y1="0%" x2="100%" y2="100%">
      <stop offset="0%" stop-color="#0B2A4A"/>
      <stop offset="100%" stop-color="#134E72"/>
    </linearGradient>
    <linearGradient id="iris" x1="0%" y1="0%" x2="100%" y2="100%">
      <stop offset="0%" stop-color="#2DD4BF"/>
      <stop offset="100%" stop-color="#14B8A6"/>
    </linearGradient>
    <linearGradient id="scan" x1="0%" y1="50%" x2="100%" y2="50%">
      <stop offset="0%" stop-color="#E8A838"/>
      <stop offset="100%" stop-color="#F5C842"/>
    </linearGradient>
  </defs>
  <rect width="64" height="64" rx="16" fill="url(#bg)"/>
  <circle cx="32" cy="32" r="26" stroke="url(#scan)" stroke-width="1.8" stroke-opacity="0.5" fill="none"/>
  <path d="M32 10 A22 22 0 0 1 54 32" stroke="url(#scan)" stroke-width="3" stroke-linecap="round" fill="none"/>
  <path d="M12 32 C17 20 47 20 52 32 C47 44 17 44 12 32 Z" stroke="#fff" stroke-width="2.2" stroke-linejoin="round" fill="none" opacity="0.93"/>
  <circle cx="32" cy="32" r="11" fill="url(#iris)"/>
  <circle cx="32" cy="32" r="5" fill="#061829"/>
  <circle cx="35" cy="29" r="2" fill="#fff" opacity="0.95"/>
  <line x1="32" y1="6" x2="32" y2="14" stroke="url(#scan)" stroke-width="2" stroke-linecap="round" opacity="0.65"/>
  <line x1="32" y1="50" x2="32" y2="58" stroke="url(#scan)" stroke-width="2" stroke-linecap="round" opacity="0.45"/>
  <line x1="6" y1="32" x2="14" y2="32" stroke="url(#scan)" stroke-width="2" stroke-linecap="round" opacity="0.45"/>
  <line x1="50" y1="32" x2="58" y2="32" stroke="url(#scan)" stroke-width="2" stroke-linecap="round" opacity="0.45"/>
</svg>
