<svg xmlns="http://www.w3.org/2000/svg" xmlns:xlink="http://www.w3.org/1999/xlink" width="80cm" height="180cm" viewBox="0 0 2400 5400" preserveAspectRatio="xMidYMin meet" fill="none" role="img" aria-labelledby="pt pd">
  <title id="pt">鹰眼 EAGLEEYE 医保基金稽核智能体 · 易拉宝海报 v5.4(微精修)</title>
  <desc id="pd">80x180cm rollup v5.4: 微调色彩层级、数据脚注、双侧价值分组与底部视觉收口。</desc>
  <defs>
    <linearGradient id="navy" x1="0" y1="0" x2="1" y2="1"><stop offset="0" stop-color="#0B2A4A"/><stop offset="1" stop-color="#134E72"/></linearGradient>
    <linearGradient id="iris" x1="0" y1="0" x2="1" y2="1"><stop offset="0" stop-color="#2DD4BF"/><stop offset="1" stop-color="#14B8A6"/></linearGradient>
    <linearGradient id="amber" x1="0" y1="0" x2="1" y2="0"><stop offset="0" stop-color="#E8A838"/><stop offset="1" stop-color="#F5C842"/></linearGradient>
    <linearGradient id="redbar" x1="0" y1="0" x2="1" y2="0"><stop offset="0" stop-color="#DC4A3D"/><stop offset="1" stop-color="#F15B52"/></linearGradient>
    <linearGradient id="herowash" x1="0" y1="0" x2="0" y2="1"><stop offset="0" stop-color="#1A070D"/><stop offset="1" stop-color="#0D0F14"/></linearGradient>
    <linearGradient id="cardShine" x1="0" y1="0" x2="0" y2="1"><stop offset="0" stop-color="#FFFFFF" stop-opacity="0.055"/><stop offset="0.16" stop-color="#FFFFFF" stop-opacity="0"/></linearGradient>
    <radialGradient id="redglow" cx="0.82" cy="0.25" r="0.72"><stop offset="0" stop-color="#DC4A3D" stop-opacity="0.38"/><stop offset="1" stop-color="#DC4A3D" stop-opacity="0"/></radialGradient>
    <pattern id="dots" width="54" height="54" patternUnits="userSpaceOnUse"><circle cx="6" cy="6" r="2" fill="#FFFFFF" opacity="0.045"/></pattern>
    <filter id="softGlow" x="-15%" y="-15%" width="130%" height="130%"><feGaussianBlur stdDeviation="6" result="b"/><feMerge><feMergeNode in="b"/><feMergeNode in="SourceGraphic"/></feMerge></filter>
    <style>
      .f{font-family:"PingFang SC","Hiragino Sans GB","Noto Sans SC","Microsoft YaHei","Helvetica Neue",Arial,sans-serif}
      .l{font-family:Inter,"Helvetica Neue",Arial,sans-serif}
      .m{font-family:"SF Mono","DM Mono","Roboto Mono",Menlo,monospace}
      .w{fill:#FFFFFF}.o{fill:#E6EAF0}.mut{fill:#98A4B4}.red{fill:#F15B52}.teal{fill:#37E0CC}.amb{fill:#F5C842}
      .eb{fill:#F15B52;letter-spacing:0.14em}
      .hair{stroke:#242B36;stroke-width:2;opacity:0.82}
    </style>
  </defs>

  <rect width="2400" height="5400" fill="#0D0F14"/>
  <rect width="2400" height="5400" fill="url(#dots)"/>

  <!-- ① Header -->
  <g class="f" transform="translate(150 96)">
    <g transform="scale(2.9)">
      <rect x="0" y="4" width="56" height="56" rx="14" fill="url(#navy)"/>
      <circle cx="28" cy="32" r="22" stroke="url(#amber)" stroke-width="1.5" stroke-opacity="0.55" fill="none"/>
      <path d="M28 14 A18 18 0 0 1 46 32" stroke="url(#amber)" stroke-width="2.5" stroke-linecap="round" fill="none" opacity="0.9"/>
      <path d="M10 32 C14 22 42 22 46 32 C42 42 14 42 10 32 Z" stroke="#fff" stroke-width="2" stroke-linejoin="round" fill="none" opacity="0.92"/>
      <circle cx="28" cy="32" r="9" fill="url(#iris)"/><circle cx="28" cy="32" r="4.2" fill="#061829"/>
      <circle cx="30.5" cy="29.5" r="1.6" fill="#fff" opacity="0.95"/>
      <line x1="8" y1="32" x2="14" y2="32" stroke="url(#amber)" stroke-width="1.5" stroke-linecap="round" opacity="0.5"/>
      <line x1="42" y1="32" x2="48" y2="32" stroke="url(#amber)" stroke-width="1.5" stroke-linecap="round" opacity="0.5"/>
    </g>
    <text x="212" y="82" class="w" font-size="78" font-weight="800">鹰眼 <tspan class="l" fill="#37E0CC" font-size="70">EAGLEEYE</tspan></text>
    <text x="214" y="146" class="mut" font-size="36" font-weight="500">医保基金稽核智能体 · 飞检取证放大镜</text>
    <text x="2100" y="60" class="mut l" font-size="27" font-weight="600" text-anchor="end" letter-spacing="0.06em">MEDICAL INSURANCE AUDIT · AI AGENT</text>
    <text x="2100" y="114" class="red m" font-size="29" font-weight="700" text-anchor="end">模法黑客松 S4 · 2026</text>
    <rect x="0" y="188" width="2100" height="5" fill="url(#redbar)"/>
  </g>

  <!-- ② Hero · rhythm: headline +20 line gap, stats band anchored low -->
  <g class="f" transform="translate(150 368)">
    <rect x="0" y="0" width="2100" height="920" rx="22" fill="url(#herowash)" stroke="#33131B" stroke-width="2"/>
    <rect x="0" y="0" width="2100" height="920" rx="22" fill="url(#redglow)"/>
    <rect x="0" y="0" width="2100" height="920" rx="22" fill="url(#cardShine)"/>
    <text x="66" y="104" class="m eb" font-size="34" font-weight="700">EVIDENCE-CHAIN FORENSICS · 证据取证</text>
    <text x="66" y="280" class="w" font-size="128" font-weight="800">看得懂病历的稽核 AI，</text>
    <text x="66" y="436" class="w" font-size="128" font-weight="800">把线索变成<tspan class="red">能对质的证据</tspan>。</text>
    <text x="66" y="532" class="o" font-size="42" font-weight="500">读懂病程·医嘱·费用清单，做费用-诊断-医嘱三方交叉验证；</text>
    <text x="66" y="598" class="o" font-size="42" font-weight="500">每条疑点回链原文与政策条款。</text>
    <g transform="translate(66 632)">
      <rect x="0" y="0" width="420" height="52" rx="26" fill="#2A0E14" stroke="#DC4A3D" stroke-opacity="0.45" stroke-width="2"/>
      <text x="210" y="36" class="red" font-size="30" font-weight="700" text-anchor="middle">引不出原文的，不输出</text>
    </g>
    <rect x="66" y="716" width="1968" height="3" fill="#463136" opacity="0.78"/>
    <g transform="translate(66 724)">
      <text x="0" y="112" class="m red" font-size="132" font-weight="800">40<tspan font-size="54">分钟</tspan></text>
      <text x="440" y="112" class="mut" font-size="104" font-weight="800">→</text>
      <text x="600" y="112" class="m teal" font-size="132" font-weight="800">90<tspan font-size="54">秒</tspan></text>
      <text x="1040" y="112" class="mut" font-size="104" font-weight="800">≈</text>
      <text x="1200" y="112" class="m amb" font-size="132" font-weight="800">27×</text>
      <text x="0" y="172" class="mut" font-size="32" font-weight="600">人工单案初筛</text>
      <text x="600" y="172" class="mut" font-size="32" font-weight="600">鹰眼三要素证据链</text>
      <text x="1200" y="172" class="mut" font-size="32" font-weight="600">人力倍增(端到端)</text>
    </g>
  </g>

  <!-- 人少事多数据条 → 4 stat chips -->
  <g class="f" transform="translate(150 1328)">
    <g transform="translate(0 0)"><rect x="0" y="0" width="510" height="118" rx="16" fill="#161A21" stroke="#2A323E" stroke-width="2"/><rect x="0" y="0" width="510" height="118" rx="16" fill="url(#cardShine)"/><text x="34" y="58" class="m red" font-size="56" font-weight="800">8600</text><text x="34" y="98" class="mut" font-size="28" font-weight="600">名医保监管员</text></g>
    <g transform="translate(530 0)"><rect x="0" y="0" width="510" height="118" rx="16" fill="#161A21" stroke="#2A323E" stroke-width="2"/><rect x="0" y="0" width="510" height="118" rx="16" fill="url(#cardShine)"/><text x="34" y="58" class="m w" font-size="56" font-weight="800">13 亿</text><text x="34" y="98" class="mut" font-size="28" font-weight="600">参保人 · 监管对象基数</text></g>
    <g transform="translate(1060 0)"><rect x="0" y="0" width="510" height="118" rx="16" fill="#161A21" stroke="#2A323E" stroke-width="2"/><rect x="0" y="0" width="510" height="118" rx="16" fill="url(#cardShine)"/><text x="34" y="58" class="m w" font-size="56" font-weight="800">28.99 万</text><text x="34" y="98" class="mut" font-size="28" font-weight="600">定点机构</text></g>
    <g transform="translate(1590 0)"><rect x="0" y="0" width="510" height="118" rx="16" fill="#2A0E14" stroke="#DC4A3D" stroke-opacity="0.42" stroke-width="2"/><rect x="0" y="0" width="510" height="118" rx="16" fill="url(#cardShine)"/><text x="34" y="58" class="m w" font-size="56" font-weight="800">500</text><text x="34" y="98" class="mut" font-size="28" font-weight="600">飞检年查机构数</text></g>
    <text x="0" y="142" class="mut" font-size="20" font-weight="500" opacity="0.9">数据来源：8600 名医保监管人员 · 公开行业报道；13.27 亿参保人、28.99 万定点机构 · 国家医保局《2024年全国医疗保障事业发展统计公报》。</text>
    <text x="0" y="168" class="mut" font-size="20" font-weight="500" opacity="0.78">500 家 · 《2024年医保基金违法违规问题专项整治工作方案》；按监管人员/覆盖对象折算，人均监管对象约为美国 4 倍。</text>
  </g>

  <line x1="150" y1="1510" x2="2250" y2="1510" class="hair"/>

  <!-- ③ 价值闭环 · rhythm: title block 248 | rowH 296 | rowGap 32 -->
  <g class="f" transform="translate(150 1550)">
    <rect x="0" y="8" width="10" height="70" fill="url(#redbar)"/>
    <text x="40" y="40" class="m eb" font-size="30" font-weight="700">01 · 价值闭环</text>
    <text x="40" y="132" class="w" font-size="68" font-weight="800">2 受众 × 3 阶段，贯通事前事中事后</text>
    <text x="40" y="204" class="mut" font-size="32" font-weight="500">院端自查与监管飞检是两条主线；结算审核走事中。原型聚焦「读懂案卷 → 出证据链」，其余场景按对应工作流扩展。</text>

    <g transform="translate(0 248)">
      <g transform="translate(236 0)"><rect x="0" y="0" width="610" height="72" rx="12" fill="#161A21" stroke="#2A323E" stroke-width="2"/><rect x="0" y="0" width="610" height="72" rx="12" fill="url(#cardShine)"/><text x="305" y="48" class="o" font-size="34" font-weight="700" text-anchor="middle">事前 · 提醒</text></g>
      <g transform="translate(862 0)"><rect x="0" y="0" width="610" height="72" rx="12" fill="#161A21" stroke="#2A323E" stroke-width="2"/><rect x="0" y="0" width="610" height="72" rx="12" fill="url(#cardShine)"/><text x="305" y="48" class="o" font-size="34" font-weight="700" text-anchor="middle">事中 · 结算审核</text></g>
      <g transform="translate(1488 0)"><rect x="0" y="0" width="612" height="72" rx="12" fill="url(#redbar)"/><text x="306" y="48" class="w" font-size="34" font-weight="800" text-anchor="middle">事后 · 监管（飞检）</text></g>
    </g>

    <g transform="translate(0 348)">
      <g transform="translate(0 0)"><rect x="0" y="0" width="220" height="296" rx="16" fill="#12294A" stroke="#1E3A5C" stroke-width="2"/><rect x="0" y="0" width="220" height="296" rx="16" fill="url(#cardShine)"/><text x="110" y="138" class="w" font-size="34" font-weight="800" text-anchor="middle">监管侧</text><text x="110" y="186" class="teal" font-size="24" font-weight="600" text-anchor="middle">飞检 / 结算</text></g>
      <g transform="translate(236 0)"><rect x="0" y="0" width="610" height="296" rx="16" fill="#161A21" stroke="#2A323E" stroke-width="2"/><rect x="0" y="0" width="610" height="296" rx="16" fill="url(#cardShine)"/><line x1="380" y1="24" x2="380" y2="272" stroke="#242B36" stroke-width="1.5"/><text x="28" y="56" class="w" font-size="34" font-weight="800">高发规则前移</text><text x="28" y="98" class="o" font-size="28" font-weight="600">机构画像 → 抽样指导</text><text x="28" y="142" class="mut" font-size="24" font-weight="500">按金额/科室标记高风险，</text><text x="28" y="174" class="mut" font-size="24" font-weight="500">引导抽样聚焦关键样本。</text><text x="28" y="218" class="mut" font-size="24" font-weight="500">输出：抽样建议 / 规则清单。</text><rect x="400" y="48" width="186" height="40" rx="8" fill="#FFFFFF" fill-opacity="0.06"/><text x="493" y="76" class="teal" font-size="22" font-weight="700" text-anchor="middle">机构画像</text><rect x="400" y="100" width="186" height="40" rx="8" fill="#FFFFFF" fill-opacity="0.06"/><text x="493" y="128" class="o" font-size="22" font-weight="600" text-anchor="middle">金额排序</text><rect x="400" y="152" width="186" height="40" rx="8" fill="#FFFFFF" fill-opacity="0.06"/><text x="493" y="180" class="mut" font-size="22" font-weight="600" text-anchor="middle">科室热力</text></g>
      <g transform="translate(862 0)"><rect x="0" y="0" width="610" height="296" rx="16" fill="#161A21" stroke="#2A323E" stroke-width="2"/><rect x="0" y="0" width="610" height="296" rx="16" fill="url(#cardShine)"/><line x1="380" y1="24" x2="380" y2="272" stroke="#242B36" stroke-width="1.5"/><text x="28" y="56" class="w" font-size="34" font-weight="800">存疑单语义复核</text><text x="28" y="98" class="o" font-size="28" font-weight="600">误报前置过滤</text><text x="28" y="142" class="mut" font-size="24" font-weight="500">对照原文复核存疑单，</text><text x="28" y="174" class="mut" font-size="24" font-weight="500">降低误报与复核成本。</text><text x="28" y="218" class="mut" font-size="24" font-weight="500">输出：可采纳疑点 / 降级线索。</text><rect x="400" y="48" width="186" height="40" rx="8" fill="#FFFFFF" fill-opacity="0.06"/><text x="493" y="76" class="teal" font-size="22" font-weight="700" text-anchor="middle">原文回链</text><rect x="400" y="100" width="186" height="40" rx="8" fill="#FFFFFF" fill-opacity="0.06"/><text x="493" y="128" class="o" font-size="22" font-weight="600" text-anchor="middle">语义比对</text><rect x="400" y="152" width="186" height="40" rx="8" fill="#FFFFFF" fill-opacity="0.06"/><text x="493" y="180" class="mut" font-size="22" font-weight="600" text-anchor="middle">误报过滤</text></g>
      <g transform="translate(1488 0)"><rect x="0" y="0" width="612" height="296" rx="16" fill="#2A0E14" stroke="#DC4A3D" stroke-opacity="0.52" stroke-width="2" filter="url(#softGlow)"/><rect x="0" y="0" width="612" height="296" rx="16" fill="url(#cardShine)"/><rect x="0" y="0" width="8" height="296" rx="4" fill="url(#redbar)"/><line x1="382" y1="24" x2="382" y2="272" stroke="#4A2028" stroke-width="1.5"/><text x="28" y="56" class="red" font-size="34" font-weight="800">飞检取证放大镜</text><text x="28" y="98" class="w" font-size="28" font-weight="700">飞检场景 · 40分→90秒</text><text x="28" y="142" class="o" font-size="24" font-weight="500">深读病程/医嘱/费用清单，</text><text x="28" y="174" class="o" font-size="24" font-weight="500">生成可写入检查结论。</text><text x="28" y="218" class="o" font-size="24" font-weight="500">疑点回链原文与政策条款。</text><rect x="402" y="48" width="188" height="40" rx="8" fill="#FFFFFF" fill-opacity="0.08"/><text x="496" y="76" class="red" font-size="22" font-weight="700" text-anchor="middle">案卷深读</text><rect x="402" y="100" width="188" height="40" rx="8" fill="#FFFFFF" fill-opacity="0.08"/><text x="496" y="128" class="w" font-size="22" font-weight="600" text-anchor="middle">三要素</text><rect x="402" y="152" width="188" height="40" rx="8" fill="#FFFFFF" fill-opacity="0.08"/><text x="496" y="180" class="w" font-size="22" font-weight="600" text-anchor="middle">举证包</text></g>
    </g>

    <g transform="translate(0 676)">
      <g transform="translate(0 0)"><rect x="0" y="0" width="220" height="296" rx="16" fill="#0E3B34" stroke="#1E3A35" stroke-width="2"/><rect x="0" y="0" width="220" height="296" rx="16" fill="url(#cardShine)"/><text x="110" y="138" class="w" font-size="34" font-weight="800" text-anchor="middle">院端</text><text x="110" y="186" class="teal" font-size="24" font-weight="600" text-anchor="middle">自查 / 合规</text></g>
      <g transform="translate(236 0)"><rect x="0" y="0" width="610" height="296" rx="16" fill="#161A21" stroke="#2A323E" stroke-width="2"/><rect x="0" y="0" width="610" height="296" rx="16" fill="url(#cardShine)"/><line x1="380" y1="24" x2="380" y2="272" stroke="#242B36" stroke-width="1.5"/><text x="28" y="56" class="teal" font-size="34" font-weight="800">开单合规提示</text><text x="28" y="98" class="o" font-size="28" font-weight="600">关口前移 · 源头防控</text><text x="28" y="142" class="mut" font-size="24" font-weight="500">开单/上传前对照规则提醒，</text><text x="28" y="174" class="mut" font-size="24" font-weight="500">将新问题拦在发生前。</text><text x="28" y="218" class="mut" font-size="24" font-weight="500">输出：开单提示 / 命中说明。</text><rect x="400" y="48" width="186" height="40" rx="8" fill="#FFFFFF" fill-opacity="0.06"/><text x="493" y="76" class="teal" font-size="22" font-weight="700" text-anchor="middle">两库对齐</text><rect x="400" y="100" width="186" height="40" rx="8" fill="#FFFFFF" fill-opacity="0.06"/><text x="493" y="128" class="o" font-size="22" font-weight="600" text-anchor="middle">开单拦截</text></g>
      <g transform="translate(862 0)"><rect x="0" y="0" width="610" height="296" rx="16" fill="#161A21" stroke="#2A323E" stroke-width="2"/><rect x="0" y="0" width="610" height="296" rx="16" fill="url(#cardShine)"/><line x1="380" y1="24" x2="380" y2="272" stroke="#242B36" stroke-width="1.5"/><text x="28" y="56" class="teal" font-size="34" font-weight="800">结算前自查拦截</text><text x="28" y="98" class="o" font-size="28" font-weight="600">避免被退回 / 拒付</text><text x="28" y="142" class="mut" font-size="24" font-weight="500">上传前校验费用-医嘱-诊断，</text><text x="28" y="174" class="mut" font-size="24" font-weight="500">降低返工与拒付风险。</text><text x="28" y="218" class="mut" font-size="24" font-weight="500">输出：自查清单 + 待改项。</text><rect x="400" y="48" width="186" height="40" rx="8" fill="#FFFFFF" fill-opacity="0.06"/><text x="493" y="76" class="teal" font-size="22" font-weight="700" text-anchor="middle">三方交叉</text><rect x="400" y="100" width="186" height="40" rx="8" fill="#FFFFFF" fill-opacity="0.06"/><text x="493" y="128" class="o" font-size="22" font-weight="600" text-anchor="middle">上传前检</text></g>
      <g transform="translate(1488 0)"><rect x="0" y="0" width="612" height="296" rx="16" fill="#161A21" stroke="#2A323E" stroke-width="2"/><rect x="0" y="0" width="612" height="296" rx="16" fill="url(#cardShine)"/><rect x="0" y="0" width="8" height="296" rx="4" fill="#14B8A6"/><line x1="382" y1="24" x2="382" y2="272" stroke="#242B36" stroke-width="1.5"/><text x="28" y="56" class="teal" font-size="34" font-weight="800">历史体检 + 申诉副驾</text><text x="28" y="98" class="w" font-size="28" font-weight="700">自查从宽，被查从严</text><text x="28" y="142" class="mut" font-size="24" font-weight="500">飞检前批量自查；疑点可生成</text><text x="28" y="174" class="mut" font-size="24" font-weight="500">申诉草稿与举证清单。</text><text x="28" y="218" class="mut" font-size="24" font-weight="500">输出：整改台账 + 申诉材料包。</text><rect x="402" y="48" width="188" height="40" rx="8" fill="#FFFFFF" fill-opacity="0.06"/><text x="496" y="76" class="teal" font-size="22" font-weight="700" text-anchor="middle">历史体检</text><rect x="402" y="100" width="188" height="40" rx="8" fill="#FFFFFF" fill-opacity="0.06"/><text x="496" y="128" class="w" font-size="22" font-weight="600" text-anchor="middle">申诉草稿</text></g>
    </g>
    <g transform="translate(0 1004)"><rect x="0" y="0" width="2100" height="72" rx="16" fill="#161A21" stroke="#2A323E" stroke-width="2"/><rect x="0" y="0" width="2100" height="72" rx="16" fill="url(#cardShine)"/><text x="1050" y="47" class="o" font-size="30" font-weight="600" text-anchor="middle">院端自查与监管检查相互衔接 · 政策鼓励源头治理（2026 扩 12 领域 / 关口前移）</text></g>
  </g>

  <line x1="150" y1="2748" x2="2250" y2="2748" class="hair"/>

  <!-- ③b 工程架构 · 我们在做什么 -->
  <g class="f" transform="translate(150 2788)">
    <rect x="0" y="0" width="2100" height="340" rx="16" fill="#161A21" stroke="#2A323E" stroke-width="2"/>
    <rect x="0" y="0" width="2100" height="340" rx="16" fill="url(#cardShine)"/>
    <text x="40" y="48" class="m eb" font-size="28" font-weight="700">ENGINE · 工程架构（原型在做什么）</text>
    <text x="40" y="92" class="mut" font-size="26" font-weight="500">不是「聊天判案」—— 材料进、事实层立住、规则跑通、门禁把关，再出可复核的疑点与举证包。</text>
    <g transform="translate(40 116)">
      <rect x="0" y="0" width="300" height="88" rx="12" fill="#12294A" stroke="#1E3A5C" stroke-width="1.5"/><text x="150" y="38" class="w" font-size="26" font-weight="800" text-anchor="middle">L1 材料摄取</text><text x="150" y="70" class="mut" font-size="22" font-weight="500" text-anchor="middle">PDF / 清单 / OCR</text>
      <path d="M304 44 H332" stroke="#37E0CC" stroke-width="2.5"/>
      <rect x="336" y="0" width="300" height="88" rx="12" fill="#12294A" stroke="#1E3A5C" stroke-width="1.5"/><text x="486" y="38" class="w" font-size="26" font-weight="800" text-anchor="middle">L2 案卷对象</text><text x="486" y="70" class="mut" font-size="22" font-weight="500" text-anchor="middle">事实 + 源锚点</text>
      <path d="M640 44 H668" stroke="#37E0CC" stroke-width="2.5"/>
      <rect x="672" y="0" width="300" height="88" rx="12" fill="#2A0E14" stroke="#DC4A3D" stroke-opacity="0.36" stroke-width="1.5"/><text x="822" y="38" class="red" font-size="26" font-weight="800" text-anchor="middle">L4 规则引擎</text><text x="822" y="70" class="mut" font-size="22" font-weight="500" text-anchor="middle">79 规则 · 触发路由</text>
      <path d="M976 44 H1004" stroke="#37E0CC" stroke-width="2.5"/>
      <rect x="1008" y="0" width="300" height="88" rx="12" fill="#161A21" stroke="#2A323E" stroke-width="1.5"/><text x="1158" y="38" class="w" font-size="26" font-weight="800" text-anchor="middle">L5 三要素门禁</text><text x="1158" y="70" class="mut" font-size="22" font-weight="500" text-anchor="middle">原文 · 政策 · 逻辑</text>
      <path d="M1312 44 H1340" stroke="#37E0CC" stroke-width="2.5"/>
      <rect x="1344" y="0" width="300" height="88" rx="12" fill="#0E3B34" stroke="#1E3A35" stroke-width="1.5"/><text x="1494" y="38" class="teal" font-size="26" font-weight="800" text-anchor="middle">L6 输出</text><text x="1494" y="70" class="mut" font-size="22" font-weight="500" text-anchor="middle">疑点 / 举证包</text>
      <rect x="336" y="108" width="240" height="56" rx="10" fill="#FFFFFF" fill-opacity="0.06" stroke="#1E3A5C" stroke-width="1"/><text x="456" y="144" class="o" font-size="22" font-weight="600" text-anchor="middle">KB1 政策两库</text>
      <rect x="596" y="108" width="240" height="56" rx="10" fill="#FFFFFF" fill-opacity="0.06" stroke="#1E3A5C" stroke-width="1"/><text x="716" y="144" class="o" font-size="22" font-weight="600" text-anchor="middle">KB2 临床指南</text>
      <path d="M456 108 V96 H822 V96" stroke="#98A4B4" stroke-width="1.5" stroke-dasharray="4 4" fill="none"/>
      <path d="M716 108 V96 H822" stroke="#98A4B4" stroke-width="1.5" stroke-dasharray="4 4" fill="none"/>
      <rect x="1660" y="0" width="360" height="164" rx="12" fill="#FFFFFF" fill-opacity="0.04" stroke="#242B36" stroke-width="1.5"/>
      <text x="1688" y="36" class="o" font-size="24" font-weight="700">横向能力</text>
      <text x="1688" y="72" class="mut" font-size="22" font-weight="500">AuditBench 20 案回归</text>
      <text x="1688" y="104" class="mut" font-size="22" font-weight="500">YHF 门禁 · FP=0 红线</text>
      <text x="1688" y="136" class="mut" font-size="22" font-weight="500">优先队列 · 工程看板</text>
    </g>
  </g>

  <line x1="150" y1="3168" x2="2250" y2="3168" class="hair"/>

  <!-- ④ 监管侧 × 院端价值 · 双列 3×2 -->
  <g class="f" transform="translate(150 3208)">
    <rect x="0" y="8" width="10" height="70" fill="url(#redbar)"/>
    <text x="40" y="40" class="m eb" font-size="30" font-weight="700">02 · 监管侧 × 院端价值</text>
    <text x="40" y="132" class="w" font-size="58" font-weight="800">面向两类用户，分别设计两套工作流</text>
    <text x="40" y="204" class="mut" font-size="28" font-weight="500">监管侧重飞检取证与结算复核；院端重在开单、结算、自查、申诉四个关口，输出各自可执行的材料。</text>
    <g transform="translate(0 248)">
      <rect x="-14" y="-12" width="1048" height="294" rx="18" fill="#12294A" fill-opacity="0.13" stroke="#1E3A5C" stroke-opacity="0.45" stroke-width="1.5"/>
      <rect x="1066" y="-12" width="1048" height="294" rx="18" fill="#0E3B34" fill-opacity="0.13" stroke="#1E3A35" stroke-opacity="0.45" stroke-width="1.5"/>
      <rect x="0" y="0" width="1020" height="40" rx="10" fill="#12294A" fill-opacity="0.62"/><text x="510" y="28" class="teal" font-size="26" font-weight="700" text-anchor="middle">监管侧 · 飞检 / 结算审核</text>
      <rect x="1080" y="0" width="1020" height="40" rx="10" fill="#0E3B34" fill-opacity="0.62"/><text x="1590" y="28" class="teal" font-size="26" font-weight="700" text-anchor="middle">院端 · 自查 / 合规 / 申诉</text>
      <g transform="translate(0 56)">
        <g transform="translate(0 0)"><rect x="0" y="0" width="330" height="100" rx="14" fill="#161A21" stroke="#2A323E" stroke-opacity="0.86" stroke-width="2"/><rect x="0" y="0" width="330" height="100" rx="14" fill="url(#cardShine)"/><circle cx="26" cy="50" r="7" opacity="0.92" fill="#F15B52"/><text x="48" y="46" class="w" font-size="26" font-weight="800">飞检取证辅助</text><text x="48" y="80" class="mut" font-size="22" font-weight="500">40分→90秒 · 举证包</text></g>
        <g transform="translate(345 0)"><rect x="0" y="0" width="330" height="100" rx="14" fill="#161A21" stroke="#2A323E" stroke-opacity="0.86" stroke-width="2"/><rect x="0" y="0" width="330" height="100" rx="14" fill="url(#cardShine)"/><circle cx="26" cy="50" r="7" opacity="0.9" fill="#37E0CC"/><text x="48" y="46" class="w" font-size="26" font-weight="800">疑点优先排序</text><text x="48" y="80" class="mut" font-size="22" font-weight="500">金额×置信 · 先高价值</text></g>
        <g transform="translate(690 0)"><rect x="0" y="0" width="330" height="100" rx="14" fill="#161A21" stroke="#2A323E" stroke-opacity="0.86" stroke-width="2"/><rect x="0" y="0" width="330" height="100" rx="14" fill="url(#cardShine)"/><circle cx="26" cy="50" r="7" opacity="0.9" fill="#37E0CC"/><text x="48" y="46" class="w" font-size="26" font-weight="800">机构画像抽样</text><text x="48" y="80" class="mut" font-size="22" font-weight="500">高发规则 → 指导抽样</text></g>
        <g transform="translate(1080 0)"><rect x="0" y="0" width="330" height="100" rx="14" fill="#161A21" stroke="#2A323E" stroke-opacity="0.86" stroke-width="2"/><rect x="0" y="0" width="330" height="100" rx="14" fill="url(#cardShine)"/><circle cx="26" cy="50" r="7" opacity="0.9" fill="#37E0CC"/><text x="48" y="46" class="teal" font-size="26" font-weight="800">开单合规提示</text><text x="48" y="80" class="mut" font-size="22" font-weight="500">两库对齐 · 关口前移</text></g>
        <g transform="translate(1425 0)"><rect x="0" y="0" width="330" height="100" rx="14" fill="#161A21" stroke="#2A323E" stroke-opacity="0.86" stroke-width="2"/><rect x="0" y="0" width="330" height="100" rx="14" fill="url(#cardShine)"/><circle cx="26" cy="50" r="7" opacity="0.9" fill="#37E0CC"/><text x="48" y="46" class="teal" font-size="26" font-weight="800">结算前自查</text><text x="48" y="80" class="mut" font-size="22" font-weight="500">三方交叉 · 减拒付</text></g>
        <g transform="translate(1770 0)"><rect x="0" y="0" width="330" height="100" rx="14" fill="#161A21" stroke="#2A323E" stroke-opacity="0.86" stroke-width="2"/><rect x="0" y="0" width="330" height="100" rx="14" fill="url(#cardShine)"/><circle cx="26" cy="50" r="7" opacity="0.9" fill="#37E0CC"/><text x="48" y="46" class="teal" font-size="26" font-weight="800">历史案卷体检</text><text x="48" y="80" class="mut" font-size="22" font-weight="500">回溯2年 · 高风险先查</text></g>
      </g>
      <g transform="translate(0 168)">
        <g transform="translate(0 0)"><rect x="0" y="0" width="330" height="100" rx="14" fill="#161A21" stroke="#2A323E" stroke-opacity="0.86" stroke-width="2"/><rect x="0" y="0" width="330" height="100" rx="14" fill="url(#cardShine)"/><circle cx="26" cy="50" r="7" opacity="0.9" fill="#F5C842"/><text x="48" y="46" class="w" font-size="26" font-weight="800">误报前置过滤</text><text x="48" y="80" class="mut" font-size="22" font-weight="500">优先控误报 · 再谈漏判</text></g>
        <g transform="translate(345 0)"><rect x="0" y="0" width="330" height="100" rx="14" fill="#161A21" stroke="#2A323E" stroke-opacity="0.86" stroke-width="2"/><rect x="0" y="0" width="330" height="100" rx="14" fill="url(#cardShine)"/><circle cx="26" cy="50" r="7" opacity="0.9" fill="#F5C842"/><text x="48" y="46" class="w" font-size="26" font-weight="800">覆盖度声明</text><text x="48" y="80" class="mut" font-size="22" font-weight="500">"查全了吗"可审计</text></g>
        <g transform="translate(690 0)"><rect x="0" y="0" width="330" height="100" rx="14" fill="#161A21" stroke="#2A323E" stroke-opacity="0.86" stroke-width="2"/><rect x="0" y="0" width="330" height="100" rx="14" fill="url(#cardShine)"/><circle cx="26" cy="50" r="7" opacity="0.92" fill="#F15B52"/><text x="48" y="46" class="w" font-size="26" font-weight="800">存疑单语义复核</text><text x="48" y="80" class="mut" font-size="22" font-weight="500">原文回链 · 降误报</text></g>
        <g transform="translate(1080 0)"><rect x="0" y="0" width="330" height="100" rx="14" fill="#161A21" stroke="#2A323E" stroke-opacity="0.86" stroke-width="2"/><rect x="0" y="0" width="330" height="100" rx="14" fill="url(#cardShine)"/><circle cx="26" cy="50" r="7" opacity="0.9" fill="#F5C842"/><text x="48" y="46" class="teal" font-size="26" font-weight="800">主动退回协同</text><text x="48" y="80" class="mut" font-size="22" font-weight="500">自查从宽 · 被查从严</text></g>
        <g transform="translate(1425 0)"><rect x="0" y="0" width="330" height="100" rx="14" fill="#161A21" stroke="#2A323E" stroke-opacity="0.86" stroke-width="2"/><rect x="0" y="0" width="330" height="100" rx="14" fill="url(#cardShine)"/><circle cx="26" cy="50" r="7" opacity="0.9" fill="#F5C842"/><text x="48" y="46" class="teal" font-size="26" font-weight="800">申诉材料副驾</text><text x="48" y="80" class="mut" font-size="22" font-weight="500">10工作日 · 举证草稿</text></g>
        <g transform="translate(1770 0)"><rect x="0" y="0" width="330" height="100" rx="14" fill="#161A21" stroke="#2A323E" stroke-opacity="0.86" stroke-width="2"/><rect x="0" y="0" width="330" height="100" rx="14" fill="url(#cardShine)"/><circle cx="26" cy="50" r="7" opacity="0.9" fill="#37E0CC"/><text x="48" y="46" class="teal" font-size="26" font-weight="800">飞检前预审</text><text x="48" y="80" class="mut" font-size="22" font-weight="500">体检模式 · 整改台账</text></g>
      </g>
    </g>
  </g>

  <line x1="150" y1="3804" x2="2250" y2="3804" class="hair"/>

  <!-- ⑤ 护城河 -->
  <g class="f" transform="translate(150 3844)">
    <rect x="0" y="8" width="10" height="70" fill="url(#redbar)"/>
    <text x="40" y="40" class="m eb" font-size="30" font-weight="700">03 · 工程护城河</text>
    <text x="40" y="132" class="w" font-size="68" font-weight="800">可验证、可回归的取证链路</text>
    <g transform="translate(0 196)">
      <rect x="0" y="0" width="1035" height="410" rx="16" fill="#161A21" stroke="#2A323E" stroke-width="2"/>
      <rect x="0" y="0" width="1035" height="410" rx="16" fill="url(#cardShine)"/>
      <text x="40" y="78" class="w" font-size="42" font-weight="800">取证可信度三件套</text>
      <g transform="translate(40 116)"><circle cx="12" cy="12" r="12" fill="#37E0CC"/><text x="46" y="22" class="o" font-size="33" font-weight="700">合议去重 · 防过罚</text><text x="46" y="64" class="mut" font-size="27">同一笔钱多规则命中 → 只算一次</text></g>
      <g transform="translate(40 220)"><circle cx="12" cy="12" r="12" fill="#F5C842"/><text x="46" y="22" class="o" font-size="33" font-weight="700">覆盖度声明 · 答"查全了吗"</text><text x="46" y="64" class="mut" font-size="27">把漏检率变成可审计声明</text></g>
      <g transform="translate(40 324)"><circle cx="12" cy="12" r="12" fill="#F15B52"/><text x="46" y="22" class="o" font-size="33" font-weight="700">置信度传播 · 反幻觉</text><text x="46" y="64" class="mut" font-size="27">OCR 低置信降权 · 排序=金额×置信</text></g>
    </g>
    <g transform="translate(1065 196)">
      <rect x="0" y="0" width="1035" height="410" rx="16" fill="#12294A" stroke="#1E3A5C" stroke-width="2"/>
      <rect x="0" y="0" width="1035" height="410" rx="16" fill="url(#cardShine)"/>
      <text x="40" y="78" class="teal" font-size="42" font-weight="800">合规地基 · 对齐国家两库母本</text>
      <text x="40" y="150" class="w" font-size="35" font-weight="700">规则 ↔ 官方政策 可溯源</text>
      <text x="40" y="208" class="o" font-size="29" font-weight="500">官方《2025 年版》两库 = <tspan class="amb" font-weight="800">88 类规则 / 24.7 万</tspan>知识点，</text>
      <text x="40" y="250" class="o" font-size="29" font-weight="500">已按主题公开 17 批。鹰眼对齐母本，每条疑点回链</text>
      <text x="40" y="292" class="o" font-size="29" font-weight="500">官方文号·条款·生效日·核验状态。</text>
      <g transform="translate(40 330)">
        <rect x="0" y="0" width="300" height="58" rx="10" fill="#FFFFFF" fill-opacity="0.08"/><text x="150" y="39" class="w" font-size="29" font-weight="800" text-anchor="middle">88% 可溯源</text>
        <rect x="322" y="0" width="280" height="58" rx="10" fill="#FFFFFF" fill-opacity="0.08"/><text x="462" y="39" class="w" font-size="29" font-weight="800" text-anchor="middle">不造规则</text>
        <rect x="624" y="0" width="333" height="58" rx="10" fill="#FFFFFF" fill-opacity="0.08"/><text x="790" y="39" class="w" font-size="29" font-weight="800" text-anchor="middle">未核实即标注</text>
      </g>
    </g>
  </g>

  <line x1="150" y1="4490" x2="2250" y2="4490" class="hair"/>

  <!-- ⑥ 硬指标 + 铁律 -->
  <g class="f" transform="translate(150 4490)">
    <text x="0" y="72" class="w" font-size="54" font-weight="800">硬指标</text>
    <text x="2100" y="72" class="mut" font-size="31" font-weight="500" text-anchor="end">守住低误报红线 · 引不出原文不输出</text>
    <g transform="translate(0 100)">
      <rect x="0" y="0" width="420" height="168" rx="16" fill="#2A0E14" stroke="#DC4A3D" stroke-opacity="0.58" stroke-width="2" filter="url(#softGlow)"/>
      <rect x="0" y="0" width="420" height="168" rx="16" fill="url(#cardShine)"/>
      <rect x="0" y="0" width="420" height="6" rx="3" fill="url(#redbar)"/>
      <text x="40" y="88" class="m red" font-size="82" font-weight="800">FP=0</text>
      <text x="40" y="132" class="mut" font-size="28" font-weight="600">干净件零误报门禁</text>
      <g transform="translate(460 0)">
        <g transform="translate(0 0)"><text x="0" y="84" class="w" font-size="56" font-weight="800">20 案</text><text x="0" y="128" class="mut" font-size="28">AuditBench 回归</text></g>
        <g transform="translate(400 0)"><text x="0" y="84" class="w" font-size="56" font-weight="800">79 规则</text><text x="0" y="128" class="mut" font-size="28">47 checker · 覆盖多专科</text></g>
        <g transform="translate(920 0)"><text x="0" y="84" class="w" font-size="56" font-weight="800">3 层</text><text x="0" y="128" class="mut" font-size="28">规则+语义+对抗复核</text></g>
      </g>
    </g>
    <g transform="translate(0 296)">
      <g transform="translate(0 0)"><rect x="0" y="0" width="510" height="86" rx="16" fill="#161A21" stroke="#2A323E" stroke-width="2"/><rect x="0" y="0" width="510" height="86" rx="16" fill="url(#cardShine)"/><text x="30" y="55" class="o" font-size="29" font-weight="700" opacity="0.85">引不出原文，不输出</text></g>
      <g transform="translate(530 0)"><rect x="0" y="0" width="510" height="86" rx="16" fill="#161A21" stroke="#2A323E" stroke-width="2"/><rect x="0" y="0" width="510" height="86" rx="16" fill="url(#cardShine)"/><text x="30" y="55" class="o" font-size="29" font-weight="700" opacity="0.85">存疑转线索 · 不误报</text></g>
      <g transform="translate(1060 0)"><rect x="0" y="0" width="510" height="86" rx="16" fill="#161A21" stroke="#2A323E" stroke-width="2"/><rect x="0" y="0" width="510" height="86" rx="16" fill="url(#cardShine)"/><text x="30" y="55" class="o" font-size="29" font-weight="700" opacity="0.85">申诉机制预演（非灰区）</text></g>
      <g transform="translate(1590 0)"><rect x="0" y="0" width="510" height="86" rx="16" fill="#161A21" stroke="#2A323E" stroke-width="2"/><rect x="0" y="0" width="510" height="86" rx="16" fill="url(#cardShine)"/><text x="30" y="55" class="o" font-size="29" font-weight="700" opacity="0.85">全链路可追溯</text></g>
    </g>
  </g>

  <!-- ⑧ Footer + QR · positioning merged into footer head -->
  <g class="f" transform="translate(150 4988)">
    <text x="1050" y="-42" class="w" font-size="40" font-weight="800" text-anchor="middle" opacity="0.92">对齐国家两库的语义取证层</text>
    <text x="1050" y="-8" class="o" font-size="24" font-weight="600" text-anchor="middle" opacity="0.82">不替代人工裁量 · 与「AI 提供线索支持」定位一致</text>
    <rect x="0" y="28" width="2100" height="356" rx="20" fill="#141A22" stroke="#2A323E" stroke-opacity="0.92" stroke-width="2"/>
    <rect x="0" y="28" width="2100" height="4" rx="2" fill="#FFFFFF" fill-opacity="0.04"/>
    <rect x="0" y="28" width="2100" height="356" rx="20" fill="url(#cardShine)"/>
    <rect x="0" y="28" width="10" height="356" rx="5" fill="url(#redbar)"/>
    <rect x="44" y="72" width="296" height="296" rx="14" fill="#FFFFFF" stroke="#2A323E" stroke-width="2"/>
    <rect x="48" y="76" width="288" height="288" rx="12" fill="none" stroke="#E6EAF0" stroke-width="1" stroke-opacity="0.35"/>
    <image x="60" y="88" width="264" height="264" style="image-rendering:pixelated" xlink:href="yingyan-experience-qr.png"/>
    <text x="392" y="148" class="w" font-size="44" font-weight="700">扫码 · 一次真实飞检取证</text>
    <text x="392" y="200" class="w" font-size="30" font-weight="600">扫码在线体验完整原型</text>
    <text x="392" y="238" class="teal" font-size="26" font-weight="500">选案卷 → 稽核 → 出证据链报告</text>
    <text x="392" y="296" class="w" font-size="38" font-weight="700">鹰眼 EAGLEEYE</text>
    <text x="392" y="346" class="mut" font-size="30" font-weight="500">医保基金稽核智能体 · 模法黑客松 S4</text>
    <text x="2056" y="220" class="w" font-size="54" font-weight="700" text-anchor="end" font-style="italic">让每一分救命钱</text>
    <text x="2056" y="292" class="red" font-size="54" font-weight="800" text-anchor="end" font-style="italic">都查得有据可对质</text>
    <rect x="1512" y="330" width="544" height="7" fill="url(#redbar)"/>
  </g>
</svg>
